<mxfile host="app.diagrams.net" modified="2021-09-10T06:13:53.407Z" agent="5.0 (Macintosh; Intel Mac OS X 10_15_7) AppleWebKit/537.36 (KHTML, like Gecko) Chrome/91.0.4472.101 Safari/537.36" etag="gkpHnaZgO1d7ZNl9c-EC" version="15.1.0" type="github">
  <diagram id="2pbSXp5lLUbkm8R_gGP_" name="登陆接入">
    <mxGraphModel dx="1426" dy="719" grid="1" gridSize="10" guides="1" tooltips="1" connect="1" arrows="1" fold="1" page="1" pageScale="1" pageWidth="827" pageHeight="1169" math="0" shadow="0">
      <root>
        <mxCell id="0" />
        <mxCell id="1" parent="0" />
        <mxCell id="i1MgenjAJ1bZOz-2Yt2w-1" value="登陆鉴权进程" style="rounded=1;whiteSpace=wrap;html=1;" vertex="1" parent="1">
          <mxGeometry x="70" y="150" width="120" height="60" as="geometry" />
        </mxCell>
        <mxCell id="i1MgenjAJ1bZOz-2Yt2w-2" value="obs进程" style="rounded=1;whiteSpace=wrap;html=1;" vertex="1" parent="1">
          <mxGeometry x="400" y="150" width="120" height="60" as="geometry" />
        </mxCell>
      </root>
    </mxGraphModel>
  </diagram>
</mxfile>
